<?xml version="1.0" standalone="no"?>
<svg id="logo-svg" width="100%" height="100%" viewBox="0 0 600 200" xmlns="http://www.w3.org/2000/svg">
                <defs>
                    <!-- Gradient for the Big 'A' -->
                    <linearGradient id="aGrad" x1="0%" y1="100%" x2="50%" y2="0%">
                        <stop id="stop1" offset="0%" stop-color="#236B66"/>
                        <stop id="stop2" offset="100%" stop-color="#0F182B"/>
                    </linearGradient>

                    <!-- True Transparency Mask: Fixes background color issues! -->
                    <mask id="cutout-mask">
                        <rect width="100%" height="100%" fill="white"/>
                        <!-- This thick stroke dynamically cuts a transparent hole through the 'A' -->
                        <path id="mask-clean-bg" fill="black" stroke="black" stroke-width="12" stroke-linejoin="round" d="M131.71 110.44L131.71 110.44Q124.15 110.44 117.72 108.06Q111.28 105.67 106.56 101.26Q101.83 96.85 99.22 90.82Q96.61 84.79 96.61 77.50L96.61 77.50Q96.61 70.21 99.22 64.18Q101.83 58.15 106.56 53.74Q111.28 49.33 117.72 46.95Q124.15 44.56 131.71 44.56L131.71 44.56Q140.98 44.56 148.13 47.80Q155.29 51.04 159.97 57.16L159.97 57.16L146.56 69.13Q143.77 65.62 140.39 63.69Q137.02 61.75 132.79 61.75L132.79 61.75Q126.22 61.75 122.13 66.03Q118.03 70.30 118.03 77.50L118.03 77.50Q118.03 84.70 122.13 88.97Q126.22 93.25 132.79 93.25L132.79 93.25Q137.02 93.25 140.39 91.31Q143.77 89.38 146.56 85.87L146.56 85.87L159.97 97.84Q155.29 103.87 148.13 107.16Q140.98 110.44 131.71 110.44ZM215.77 109L166.09 109L166.09 46L187.33 46L187.33 92.53L215.77 92.53L215.77 109ZM242.50 84.70L242.50 92.98L274 92.98L274 109L221.62 109L221.62 46L272.83 46L272.83 62.02L242.50 62.02L242.50 69.40L269.14 69.40L269.14 84.70L242.50 84.70ZM296.95 109L275.35 109L302.89 46L323.77 46L351.31 109L329.35 109L325.12 98.02L301.18 98.02L296.95 109ZM313.15 66.88L307.03 82.72L319.27 82.72L313.15 66.88ZM375.43 109L354.73 109L354.73 46L372.19 46L396.13 74.62L396.13 46L416.83 46L416.83 109L399.37 109L375.43 80.38L375.43 109Z"/>
                    </mask>
                </defs>
                
                <!-- Pure Vector Paths (Populated by JS) -->
                <!-- Masked elements: The 'A' and Leaf get cleanly cut out by the word 'CLEAN' -->
                <g mask="url(#cutout-mask)">
                    <path id="path-a" fill="url(#aGrad)" d="M59.84 140L27.43 140L68.75 45.50L100.06 45.50L141.38 140L108.44 140L102.09 123.53L66.18 123.53L59.84 140ZM84.14 76.82L74.96 100.58L93.31 100.58L84.14 76.82Z"/>
                    
                    <!-- Adjustable Leaf Element -->
                    <g id="leaf-group" transform="translate(159, 126) scale(0.8) rotate(1)">
                        <path d="M 12 -12 C 12 -12 12 -2 4 4 C -4 10 -12 12 -12 12 C -12 12 -12 2 -4 -4 C 4 -10 12 -12 12 -12 Z" fill="#52A59F"/>
                    </g>
                </g>

                <!-- Text Elements -->
                <path id="path-clean-text" fill="#1B2A41" d="M131.71 110.44L131.71 110.44Q124.15 110.44 117.72 108.06Q111.28 105.67 106.56 101.26Q101.83 96.85 99.22 90.82Q96.61 84.79 96.61 77.50L96.61 77.50Q96.61 70.21 99.22 64.18Q101.83 58.15 106.56 53.74Q111.28 49.33 117.72 46.95Q124.15 44.56 131.71 44.56L131.71 44.56Q140.98 44.56 148.13 47.80Q155.29 51.04 159.97 57.16L159.97 57.16L146.56 69.13Q143.77 65.62 140.39 63.69Q137.02 61.75 132.79 61.75L132.79 61.75Q126.22 61.75 122.13 66.03Q118.03 70.30 118.03 77.50L118.03 77.50Q118.03 84.70 122.13 88.97Q126.22 93.25 132.79 93.25L132.79 93.25Q137.02 93.25 140.39 91.31Q143.77 89.38 146.56 85.87L146.56 85.87L159.97 97.84Q155.29 103.87 148.13 107.16Q140.98 110.44 131.71 110.44ZM215.77 109L166.09 109L166.09 46L187.33 46L187.33 92.53L215.77 92.53L215.77 109ZM242.50 84.70L242.50 92.98L274 92.98L274 109L221.62 109L221.62 46L272.83 46L272.83 62.02L242.50 62.02L242.50 69.40L269.14 69.40L269.14 84.70L242.50 84.70ZM296.95 109L275.35 109L302.89 46L323.77 46L351.31 109L329.35 109L325.12 98.02L301.18 98.02L296.95 109ZM313.15 66.88L307.03 82.72L319.27 82.72L313.15 66.88ZM375.43 109L354.73 109L354.73 46L372.19 46L396.13 74.62L396.13 46L416.83 46L416.83 109L399.37 109L375.43 80.38L375.43 109Z"/>
                <path id="path-sub-text" fill="#52A59F" d="M183.49 135L174.44 135L174.44 116.80L182.97 116.80Q186.25 116.80 187.96 118.09Q189.68 119.37 189.68 121.53L189.68 121.53Q189.68 122.94 189.03 123.96Q188.38 124.99 187.34 125.54L187.34 125.54Q188.80 126.00 189.71 127.15Q190.62 128.29 190.62 130.06L190.62 130.06Q190.62 132.40 188.81 133.70Q187.00 135 183.49 135L183.49 135ZM182.61 119.45L182.61 119.45L177.82 119.45L177.82 124.47L182.61 124.47Q184.38 124.47 185.32 123.85Q186.27 123.22 186.27 121.97L186.27 121.97Q186.27 120.70 185.32 120.08Q184.38 119.45 182.61 119.45ZM177.82 127.10L177.82 132.35L183.28 132.35Q185.18 132.35 186.20 131.72Q187.21 131.10 187.21 129.72L187.21 129.72Q187.21 128.37 186.20 127.73Q185.18 127.10 183.28 127.10L183.28 127.10L177.82 127.10ZM199.79 135.18L199.79 135.18Q197.14 135.18 195.48 133.69Q193.81 132.19 193.81 129.05L193.81 129.05L193.81 121.12L197.06 121.12L197.06 128.60Q197.06 130.50 197.92 131.41Q198.78 132.32 200.31 132.32L200.31 132.32Q202.03 132.32 203.07 131.27Q204.11 130.22 204.11 128.14L204.11 128.14L204.11 121.12L207.36 121.12L207.36 135L204.27 135L204.27 133.23Q203.49 134.17 202.32 134.68Q201.15 135.18 199.79 135.18ZM214.87 135L211.62 135L211.62 121.12L214.87 121.12L214.87 135ZM213.26 118.83L213.26 118.83Q212.35 118.83 211.77 118.26Q211.18 117.68 211.18 116.88L211.18 116.88Q211.18 116.07 211.77 115.50Q212.35 114.93 213.26 114.93L213.26 114.93Q214.17 114.93 214.76 115.46Q215.34 115.99 215.34 116.80L215.34 116.80Q215.34 117.66 214.76 118.24Q214.17 118.83 213.26 118.83ZM222.39 135L219.14 135L219.14 115.71L222.39 115.71L222.39 135ZM232.53 135.18L232.53 135.18Q230.53 135.18 228.94 134.30Q227.35 133.41 226.43 131.81Q225.51 130.22 225.51 128.06L225.51 128.06Q225.51 125.90 226.43 124.30Q227.35 122.70 228.94 121.83Q230.53 120.96 232.53 120.96L232.53 120.96Q233.88 120.96 235.02 121.41Q236.17 121.87 237.00 122.81L237.00 122.81L237.00 115.71L240.25 115.71L240.25 135L237.13 135L237.13 133.18Q236.32 134.19 235.14 134.69Q233.96 135.18 232.53 135.18ZM232.92 132.40L232.92 132.40Q234.09 132.40 235.02 131.87Q235.96 131.33 236.51 130.36Q237.05 129.38 237.05 128.06L237.05 128.06Q237.05 126.73 236.51 125.76Q235.96 124.78 235.02 124.25Q234.09 123.72 232.92 123.72L232.92 123.72Q231.75 123.72 230.81 124.25Q229.88 124.78 229.33 125.76Q228.78 126.73 228.78 128.06L228.78 128.06Q228.78 129.38 229.33 130.36Q229.88 131.33 230.81 131.87Q231.75 132.40 232.92 132.40ZM247.76 135L244.51 135L244.51 121.12L247.76 121.12L247.76 135ZM246.15 118.83L246.15 118.83Q245.24 118.83 244.66 118.26Q244.07 117.68 244.07 116.88L244.07 116.88Q244.07 116.07 244.66 115.50Q245.24 114.93 246.15 114.93L246.15 114.93Q247.06 114.93 247.65 115.46Q248.23 115.99 248.23 116.80L248.23 116.80Q248.23 117.66 247.65 118.24Q247.06 118.83 246.15 118.83ZM259.91 120.96L259.91 120.96Q261.57 120.96 262.88 121.61Q264.20 122.26 264.95 123.61Q265.70 124.96 265.70 127.04L265.70 127.04L265.70 135L262.45 135L262.45 127.46Q262.45 125.61 261.58 124.70Q260.71 123.79 259.15 123.79L259.15 123.79Q257.41 123.79 256.34 124.85Q255.28 125.90 255.28 127.98L255.28 127.98L255.28 135L252.03 135L252.03 121.12L255.12 121.12L255.12 122.91Q255.93 121.95 257.16 121.45Q258.40 120.96 259.91 120.96ZM275.74 134.38L275.74 134.38Q273.76 134.38 272.17 133.53Q270.57 132.69 269.64 131.18Q268.72 129.67 268.72 127.64L268.72 127.64Q268.72 125.64 269.64 124.13Q270.57 122.62 272.17 121.79Q273.76 120.96 275.74 120.96L275.74 120.96Q277.20 120.96 278.44 121.44Q279.69 121.92 280.55 122.96L280.55 122.96L280.55 121.12L283.64 121.12L283.64 132.89Q283.64 136.66 281.72 138.44Q279.80 140.23 276.16 140.23L276.16 140.23Q274.21 140.23 272.39 139.72Q270.57 139.21 269.40 138.25L269.40 138.25L270.85 135.81Q271.76 136.56 273.15 137.01Q274.54 137.47 275.97 137.47L275.97 137.47Q278.26 137.47 279.33 136.42Q280.39 135.36 280.39 133.26L280.39 133.26L280.39 132.53Q279.54 133.47 278.34 133.92Q277.14 134.38 275.74 134.38ZM276.23 131.62L276.23 131.62Q278.08 131.62 279.26 130.51Q280.45 129.41 280.45 127.64L280.45 127.64Q280.45 125.87 279.26 124.80Q278.08 123.72 276.23 123.72L276.23 123.72Q274.36 123.72 273.18 124.80Q272.00 125.87 272.00 127.64L272.00 127.64Q272.00 129.41 273.18 130.51Q274.36 131.62 276.23 131.62ZM301.04 135.26L301.04 135.26Q298.91 135.26 296.96 134.65Q295.01 134.04 293.86 133.08L293.86 133.08L295.03 130.45Q296.12 131.33 297.74 131.89Q299.35 132.45 301.04 132.45L301.04 132.45Q303.17 132.45 304.12 131.78Q305.07 131.10 305.07 130.09L305.07 130.09Q305.07 129.25 304.48 128.75Q303.90 128.24 302.94 127.94Q301.97 127.64 300.82 127.38Q299.66 127.12 298.50 126.77Q297.35 126.42 296.38 125.86Q295.42 125.30 294.84 124.37Q294.25 123.43 294.25 121.97L294.25 121.97Q294.25 120.49 295.05 119.26Q295.84 118.02 297.46 117.28Q299.09 116.54 301.58 116.54L301.58 116.54Q303.22 116.54 304.83 116.96Q306.45 117.37 307.64 118.15L307.64 118.15L306.58 120.78Q305.35 120.05 304.05 119.70Q302.75 119.35 301.56 119.35L301.56 119.35Q299.45 119.35 298.53 120.08Q297.61 120.80 297.61 121.82L297.61 121.82Q297.61 122.65 298.19 123.14Q298.78 123.64 299.74 123.95Q300.70 124.26 301.86 124.51Q303.01 124.76 304.16 125.09Q305.30 125.43 306.26 126.00Q307.23 126.58 307.81 127.50Q308.40 128.42 308.40 129.85L308.40 129.85Q308.40 131.31 307.60 132.54Q306.81 133.78 305.17 134.52Q303.53 135.26 301.04 135.26ZM317.68 135.18L317.68 135.18Q315.55 135.18 313.88 134.26Q312.22 133.34 311.26 131.74Q310.29 130.14 310.29 128.06L310.29 128.06Q310.29 125.98 311.26 124.38Q312.22 122.78 313.88 121.87Q315.55 120.96 317.68 120.96L317.68 120.96Q319.84 120.96 321.51 121.87Q323.19 122.78 324.14 124.38Q325.09 125.98 325.09 128.06L325.09 128.06Q325.09 130.14 324.14 131.74Q323.19 133.34 321.51 134.26Q319.84 135.18 317.68 135.18ZM317.68 132.40L317.68 132.40Q319.47 132.40 320.64 131.23Q321.81 130.06 321.81 128.06L321.81 128.06Q321.81 126.06 320.64 124.89Q319.47 123.72 317.68 123.72L317.68 123.72Q316.51 123.72 315.58 124.25Q314.66 124.78 314.12 125.76Q313.57 126.73 313.57 128.06L313.57 128.06Q313.57 129.38 314.12 130.36Q314.66 131.33 315.58 131.87Q316.51 132.40 317.68 132.40ZM331.46 135L328.21 135L328.21 115.71L331.46 115.71L331.46 135ZM341.60 135.18L341.60 135.18Q338.95 135.18 337.28 133.69Q335.62 132.19 335.62 129.05L335.62 129.05L335.62 121.12L338.87 121.12L338.87 128.60Q338.87 130.50 339.73 131.41Q340.58 132.32 342.12 132.32L342.12 132.32Q343.83 132.32 344.87 131.27Q345.91 130.22 345.91 128.14L345.91 128.14L345.91 121.12L349.16 121.12L349.16 135L346.07 135L346.07 133.23Q345.29 134.17 344.12 134.68Q342.95 135.18 341.60 135.18ZM358.65 135.18L358.65 135.18Q356.37 135.18 355.12 134.00Q353.87 132.82 353.87 130.50L353.87 130.50L353.87 123.82L351.58 123.82L351.58 121.22L353.87 121.22L353.87 118.05L357.12 118.05L357.12 121.22L360.84 121.22L360.84 123.82L357.12 123.82L357.12 130.42Q357.12 131.44 357.61 131.97Q358.11 132.50 359.04 132.50L359.04 132.50Q360.11 132.50 360.86 131.93L360.86 131.93L361.77 134.25Q361.18 134.71 360.36 134.95Q359.54 135.18 358.65 135.18ZM367.70 135L364.45 135L364.45 121.12L367.70 121.12L367.70 135ZM366.09 118.83L366.09 118.83Q365.18 118.83 364.59 118.26Q364.01 117.68 364.01 116.88L364.01 116.88Q364.01 116.07 364.59 115.50Q365.18 114.93 366.09 114.93L366.09 114.93Q367 114.93 367.58 115.46Q368.17 115.99 368.17 116.80L368.17 116.80Q368.17 117.66 367.58 118.24Q367 118.83 366.09 118.83ZM378.21 135.18L378.21 135.18Q376.07 135.18 374.41 134.26Q372.75 133.34 371.78 131.74Q370.82 130.14 370.82 128.06L370.82 128.06Q370.82 125.98 371.78 124.38Q372.75 122.78 374.41 121.87Q376.07 120.96 378.21 120.96L378.21 120.96Q380.36 120.96 382.04 121.87Q383.72 122.78 384.67 124.38Q385.62 125.98 385.62 128.06L385.62 128.06Q385.62 130.14 384.67 131.74Q383.72 133.34 382.04 134.26Q380.36 135.18 378.21 135.18ZM378.21 132.40L378.21 132.40Q380 132.40 381.17 131.23Q382.34 130.06 382.34 128.06L382.34 128.06Q382.34 126.06 381.17 124.89Q380 123.72 378.21 123.72L378.21 123.72Q377.04 123.72 376.11 124.25Q375.19 124.78 374.64 125.76Q374.10 126.73 374.10 128.06L374.10 128.06Q374.10 129.38 374.64 130.36Q375.19 131.33 376.11 131.87Q377.04 132.40 378.21 132.40ZM396.61 120.96L396.61 120.96Q398.28 120.96 399.59 121.61Q400.90 122.26 401.66 123.61Q402.41 124.96 402.41 127.04L402.41 127.04L402.41 135L399.16 135L399.16 127.46Q399.16 125.61 398.29 124.70Q397.42 123.79 395.86 123.79L395.86 123.79Q394.12 123.79 393.05 124.85Q391.99 125.90 391.99 127.98L391.99 127.98L391.99 135L388.74 135L388.74 121.12L391.83 121.12L391.83 122.91Q392.64 121.95 393.87 121.45Q395.11 120.96 396.61 120.96ZM410.84 135.18L410.84 135.18Q409.09 135.18 407.50 134.74Q405.90 134.30 404.96 133.62L404.96 133.62L406.21 131.15Q407.12 131.78 408.43 132.15Q409.74 132.53 411.04 132.53L411.04 132.53Q412.60 132.53 413.28 132.11Q413.96 131.70 413.96 131.00L413.96 131.00Q413.96 130.32 413.33 130.02Q412.71 129.72 411.73 129.57Q410.76 129.41 409.67 129.23Q408.57 129.05 407.60 128.66Q406.62 128.27 406 127.47Q405.38 126.68 405.38 125.30L405.38 125.30Q405.38 123.33 407.03 122.14Q408.68 120.96 411.49 120.96L411.49 120.96Q412.86 120.96 414.31 121.27Q415.75 121.58 416.69 122.16L416.69 122.16L415.44 124.63Q414.45 124.05 413.45 123.82Q412.45 123.59 411.46 123.59L411.46 123.59Q409.98 123.59 409.26 124.03Q408.55 124.47 408.55 125.15L408.55 125.15Q408.55 125.85 409.17 126.19Q409.80 126.52 410.77 126.68Q411.75 126.84 412.84 127.03Q413.93 127.23 414.90 127.62Q415.88 128.01 416.50 128.77Q417.13 129.54 417.13 130.89L417.13 130.89Q417.13 132.84 415.44 134.01Q413.75 135.18 410.84 135.18Z"/>
            </svg>