<?xml version="1.0" standalone="no"?>
<svg id="favicon-svg" width="100%" height="100%" viewBox="0 0 200 200" xmlns="http://www.w3.org/2000/svg">
                            <defs>
                                <linearGradient id="favAGrad" x1="0%" y1="100%" x2="50%" y2="0%">
                                    <stop id="fav-stop1" offset="0%" stop-color="#236B66"/>
                                    <stop id="fav-stop2" offset="100%" stop-color="#0F182B"/>
                                </linearGradient>
                                <mask id="fav-cutout-mask">
                                    <rect width="100%" height="100%" fill="white"/>
                                    <path id="fav-mask-c" fill="black" stroke="black" stroke-width="8" stroke-linejoin="round" d="M150.36 161.50L150.36 161.50Q137.26 161.50 126.11 157.36Q114.95 153.23 106.76 145.58Q98.57 137.94 94.05 127.49Q89.52 117.04 89.52 104.40L89.52 104.40Q89.52 91.76 94.05 81.31Q98.57 70.86 106.76 63.22Q114.95 55.57 126.11 51.44Q137.26 47.30 150.36 47.30L150.36 47.30Q166.43 47.30 178.83 52.92Q191.24 58.54 199.35 69.14L199.35 69.14L176.10 89.89Q171.27 83.81 165.42 80.45Q159.57 77.10 152.24 77.10L152.24 77.10Q140.85 77.10 133.75 84.51Q126.65 91.92 126.65 104.40L126.65 104.40Q126.65 116.88 133.75 124.29Q140.85 131.70 152.24 131.70L152.24 131.70Q159.57 131.70 165.42 128.35Q171.27 124.99 176.10 118.91L176.10 118.91L199.35 139.66Q191.24 150.11 178.83 155.80Q166.43 161.50 150.36 161.50Z"/>
                                </mask>
                            </defs>
                            <g mask="url(#fav-cutout-mask)">
                                <path id="fav-path-a" fill="url(#favAGrad)" d="M55.36 160L16.96 160L65.92 48L103.04 48L152 160L112.96 160L105.44 140.48L62.88 140.48L55.36 160ZM84.16 85.12L73.28 113.28L95.04 113.28L84.16 85.12Z"/>
                            </g>
                            <path id="fav-path-c" fill="#1B2A41" d="M150.36 161.50L150.36 161.50Q137.26 161.50 126.11 157.36Q114.95 153.23 106.76 145.58Q98.57 137.94 94.05 127.49Q89.52 117.04 89.52 104.40L89.52 104.40Q89.52 91.76 94.05 81.31Q98.57 70.86 106.76 63.22Q114.95 55.57 126.11 51.44Q137.26 47.30 150.36 47.30L150.36 47.30Q166.43 47.30 178.83 52.92Q191.24 58.54 199.35 69.14L199.35 69.14L176.10 89.89Q171.27 83.81 165.42 80.45Q159.57 77.10 152.24 77.10L152.24 77.10Q140.85 77.10 133.75 84.51Q126.65 91.92 126.65 104.40L126.65 104.40Q126.65 116.88 133.75 124.29Q140.85 131.70 152.24 131.70L152.24 131.70Q159.57 131.70 165.42 128.35Q171.27 124.99 176.10 118.91L176.10 118.91L199.35 139.66Q191.24 150.11 178.83 155.80Q166.43 161.50 150.36 161.50Z"/>
                        </svg>